<svg id="Layer_1" data-name="Layer 1" xmlns="http://www.w3.org/2000/svg" width="80.84" height="80.84" viewBox="0 0 80.84 80.84"><defs><style>.cls-1{fill:#fd804b;}.cls-1,.cls-2,.cls-3{fill-rule:evenodd;}.cls-2{fill:#e5cea8;}.cls-3{fill:#ffc400;}</style></defs><path class="cls-1" d="M11.51,49.12a31.12,31.12,0,0,1,1.23-8.71,6.43,6.43,0,0,0-9.29,8.87A2.36,2.36,0,0,1,4,51.59a5.59,5.59,0,0,0-.27,1.69,5.49,5.49,0,0,0,8.89,4.33A33.6,33.6,0,0,1,11.51,49.12Z"/><path class="cls-1" d="M79,45A6.42,6.42,0,0,0,68.1,40.41a31.12,31.12,0,0,1,1.23,8.71,34.05,34.05,0,0,1-1.06,8.49,5.48,5.48,0,0,0,8.88-4.33,5.29,5.29,0,0,0-.27-1.69,2.38,2.38,0,0,1,.51-2.31A6.4,6.4,0,0,0,79,45Z"/><path class="cls-2" d="M40.42,19.23A28.37,28.37,0,0,0,19.92,28a30.27,30.27,0,0,0-8.41,21.14A30.86,30.86,0,0,0,19.75,70.7C24.64,75.77,31.62,79,40.42,79S56.2,75.77,61.1,70.7a30.9,30.9,0,0,0,8.23-21.58A30.26,30.26,0,0,0,60.93,28,28.39,28.39,0,0,0,40.42,19.23Z"/><path d="M40.41,69.82a11.07,11.07,0,0,1-8.82-4.94,1.84,1.84,0,1,1,3-2.13,7.44,7.44,0,0,0,5.83,3.4,7.67,7.67,0,0,0,5.86-3.4,1.84,1.84,0,1,1,3,2.13A11.11,11.11,0,0,1,40.41,69.82Z"/><path class="cls-3" d="M50.1,8.36a6.85,6.85,0,0,0-5.44-6,21.61,21.61,0,0,0-4.24-.52,21.79,21.79,0,0,0-4.24.52,6.87,6.87,0,0,0-5.44,6L27.56,38.58H53.28Z"/><path class="cls-3" d="M50.9,15.91l-.4-3.77-.4-3.78a7.76,7.76,0,0,0-.2-1.09,7.3,7.3,0,0,0-.37-1A7.72,7.72,0,0,0,49,5.31a7.29,7.29,0,0,0-1.43-1.57,6.09,6.09,0,0,0-.89-.61,6.29,6.29,0,0,0-1-.46,6.17,6.17,0,0,0-1.06-.31l-.53-.11-.55-.1L43,2.06,42.49,2,42,1.92l-.53,0a4.36,4.36,0,0,0-.51,0h-1a4.36,4.36,0,0,0-.51,0l-.53,0L38.35,2l-.54.07-.55.09-.54.1-.54.11a6.17,6.17,0,0,0-1.06.31,6.75,6.75,0,0,0-1,.46,6,6,0,0,0-.88.61,6.74,6.74,0,0,0-.78.73,6.5,6.5,0,0,0-.65.84,6.61,6.61,0,0,0-.52.94,6.18,6.18,0,0,0-.36,1,6.56,6.56,0,0,0-.21,1.09l-.4,3.78L30,15.91"/><polyline class="cls-3" points="28.75 27.25 28.36 31.03 27.96 34.81 27.56 38.59 29.17 38.59 30.78 38.59 32.38 38.59 33.99 38.59 35.6 38.59 37.21 38.59 38.81 38.59 40.42 38.59 42.03 38.59 43.64 38.59 45.24 38.59 46.85 38.59 48.46 38.59 50.07 38.59 51.68 38.59 53.28 38.59 52.89 34.81 52.49 31.03 52.09 27.25"/><path class="cls-3" d="M76.68,35.16,76,33a2.37,2.37,0,0,0-2.81-1.6l-.58.13-.92-7.33A20.18,20.18,0,0,0,54.29,6.64,113.27,113.27,0,0,0,40.41,5.51,113,113,0,0,0,26.55,6.64a20.18,20.18,0,0,0-17.4,17.5l-.91,7.35-.6-.14A2.37,2.37,0,0,0,4.83,33l-.68,2.21A2.37,2.37,0,0,0,5,37.75l7.5,5.66a10.23,10.23,0,0,1,1.79,1.75h0a9.78,9.78,0,0,0,6.91,3.71c4.09.33,10.85.74,19.23.74s15.14-.41,19.23-.74a9.8,9.8,0,0,0,6.92-3.71,10.23,10.23,0,0,1,1.79-1.75l7.49-5.66A2.37,2.37,0,0,0,76.68,35.16Z"/><path d="M78.76,50.5a8.27,8.27,0,0,0-.35-11.34,8.93,8.93,0,0,0-.73-.65,4.21,4.21,0,0,0,.75-3.89l-.68-2.21a4.2,4.2,0,0,0-3.54-2.93l-.7-5.56a22,22,0,0,0-19-19.1c-1.38-.19-2.7-.34-4-.48l0,0a8.42,8.42,0,0,0-.83-1.06,7.82,7.82,0,0,0-1-.93,9.65,9.65,0,0,0-1.12-.77A7.83,7.83,0,0,0,46.38,1,8.93,8.93,0,0,0,45,.56L44.47.45,43.89.34,43.31.25,42.72.16,42.14.1l-.58,0L41,0H39.86l-.58,0L38.7.1l-.58.06-.59.09L37,.34l-.58.11-.56.11A9.05,9.05,0,0,0,34.46,1a8.77,8.77,0,0,0-1.24.59,9.65,9.65,0,0,0-1.12.77,7.82,7.82,0,0,0-1,.93,9.45,9.45,0,0,0-.83,1.06l0,0q-1.89.2-4,.48a22,22,0,0,0-19,19.09l-.69,5.56a4.25,4.25,0,0,0-3.57,2.94l-.68,2.21a4.21,4.21,0,0,0,.77,3.9,7.43,7.43,0,0,0-.73.64A8.27,8.27,0,0,0,2.08,50.5a.53.53,0,0,1,.13.53,7.4,7.4,0,0,0-.35,2.25A7.32,7.32,0,0,0,9.2,60.62h0a7.21,7.21,0,0,0,2.22-.35,30.69,30.69,0,0,0,7,11.71c5.6,5.8,13.21,8.86,22,8.86s16.4-3.06,22-8.86a30.71,30.71,0,0,0,7-11.71,7.15,7.15,0,0,0,2.21.35h0A7.34,7.34,0,0,0,79,53.28,7.11,7.11,0,0,0,78.63,51,.58.58,0,0,1,78.76,50.5ZM11,24.37A18.34,18.34,0,0,1,26.79,8.46l2.12-.27-.79,7.53a1.84,1.84,0,1,0,3.65.39l.8-7.56a5.37,5.37,0,0,1,.15-.8A5.05,5.05,0,0,1,33,7a4.58,4.58,0,0,1,.37-.69,7.31,7.31,0,0,1,.48-.62,5.68,5.68,0,0,1,.57-.53,5,5,0,0,1,.65-.45,6.59,6.59,0,0,1,.71-.34,5.69,5.69,0,0,1,.78-.22l.51-.1.51-.1.51-.08.51-.07.49-.06.48,0,.45,0c.28,0,.54,0,.83,0l.45,0,.47,0,.49.06.51.07.51.08.51.1.51.1a5,5,0,0,1,.78.22,5.93,5.93,0,0,1,.72.34,5.67,5.67,0,0,1,.64.45A4.11,4.11,0,0,1,47,5.7a4.68,4.68,0,0,1,.48.62,5.76,5.76,0,0,1,.38.69,5.05,5.05,0,0,1,.27.74,4.32,4.32,0,0,1,.14.8l.8,7.56a1.84,1.84,0,0,0,1.83,1.64h.19a1.83,1.83,0,0,0,1.63-2l-.79-7.53,2.12.27A18.37,18.37,0,0,1,69.87,24.38l.7,5.67a140.91,140.91,0,0,1-16.09,2.38l-.56-5.37a1.84,1.84,0,0,0-3.66.38l.56,5.28c-3.23.22-6.72.35-10.41.35s-7.16-.13-10.38-.35l.55-5.28a1.83,1.83,0,1,0-3.65-.38l-.57,5.37a139.37,139.37,0,0,1-16.09-2.38ZM5.9,35.7l.69-2.2a.53.53,0,0,1,.51-.38l.12,0a149.69,149.69,0,0,0,33.19,3.61,149.8,149.8,0,0,0,33.2-3.61.52.52,0,0,1,.63.36l.68,2.2a.53.53,0,0,1-.18.58l-7.5,5.66A11.34,11.34,0,0,0,65.12,44a8,8,0,0,1-5.63,3c-4.13.33-10.8.73-19.08.73s-14.94-.4-19.08-.73a8,8,0,0,1-5.62-3,11.34,11.34,0,0,0-2.12-2.09l-7.5-5.66A.54.54,0,0,1,5.9,35.7ZM9.2,57h0a3.67,3.67,0,0,1-3.67-3.67,3.55,3.55,0,0,1,.18-1.12,4.24,4.24,0,0,0-.88-4.1A4.59,4.59,0,0,1,5,41.76a4.73,4.73,0,0,1,1.13-.82l3.94,3a33.2,33.2,0,0,0-.41,5.21,36.39,36.39,0,0,0,.79,7.59A3.58,3.58,0,0,1,9.2,57ZM59.78,69.43c-4.89,5.06-11.59,7.74-19.36,7.74S26,74.49,21.07,69.43a28.92,28.92,0,0,1-7.72-20.31c0-.71,0-1.42.08-2.12A11.68,11.68,0,0,0,21,50.7c4.2.34,11,.75,19.37.75S55.59,51,59.79,50.7A11.76,11.76,0,0,0,67.42,47c0,.7.07,1.41.07,2.13A29,29,0,0,1,59.78,69.43ZM76,48.06a4.22,4.22,0,0,0-.88,4.1,3.85,3.85,0,0,1,.17,1.12A3.65,3.65,0,0,1,71.65,57h0a3.53,3.53,0,0,1-1.26-.24,36.39,36.39,0,0,0,.79-7.59,33.55,33.55,0,0,0-.41-5.23l3.92-3A4.6,4.6,0,0,1,76,48.06Z"/></svg>